<?xml version="1.0" encoding="UTF-8"?>
<svg id="Layer_1" data-name="Layer 1" xmlns="http://www.w3.org/2000/svg" viewBox="0 0 24.55 24.55">
  <defs>
    <style>
      .cls-1 {
        fill: #bc6c25;
        stroke-width: 0px;
      }
    </style>
  </defs>
  <path class="cls-1" d="M23.7,8.08L13.54.43c-.75-.57-1.79-.57-2.54,0L.84,8.08C.31,8.48,0,9.11,0,9.77v14.77h24.55v-14.77c0-.66-.31-1.29-.84-1.69ZM13.22,7.2c.36-1.16,1.6-1.8,2.75-1.44,1.16.36,1.8,1.6,1.44,2.75-.36,1.16-1.6,1.8-2.75,1.44s-1.8-1.6-1.44-2.75ZM8.24,5.76c1.16-.36,2.39.28,2.75,1.44s-.28,2.39-1.44,2.75-2.39-.28-2.75-1.44c-.36-1.16.28-2.39,1.44-2.75ZM3.36,14.21c-.36-1.16.28-2.39,1.44-2.75,1.16-.36,2.39.28,2.75,1.44.36,1.16-.28,2.39-1.44,2.75-1.16.36-2.39-.28-2.75-1.44ZM18.1,22.02c-1.32,1.32-3.45,1.32-4.77,0-.06-.06-.11-.11-.15-.18h0c-.21-.23-.51-.37-.83-.37s-.62.14-.83.37h0c-.04.06-.1.11-.15.17-1.32,1.32-3.45,1.32-4.77,0-1.31-1.32-1.31-3.45,0-4.77.46-.45,1.01-.75,1.6-.89h0c.34-.09.64-.31.81-.61.18-.3.22-.67.12-1-.34-1.15-.06-2.44.85-3.35,1.32-1.31,3.45-1.31,4.77,0,.9.9,1.19,2.17.86,3.32,0,.02-.01.04-.02.06-.09.33-.04.68.12.97.18.3.47.52.81.6h0c.59.14,1.14.44,1.6.9,1.31,1.32,1.31,3.45,0,4.77ZM21.19,13.92c-.36,1.16-1.6,1.8-2.75,1.44-1.16-.36-1.8-1.6-1.44-2.75s1.6-1.8,2.75-1.44,1.8,1.6,1.44,2.75Z"/>
</svg>